<svg width="128" height="129" viewBox="0 0 128 129" fill="none" xmlns="http://www.w3.org/2000/svg">
<path d="M64 124.646C97.1371 124.646 124 97.783 124 64.6459C124 31.5089 97.1371 4.64594 64 4.64594C30.8629 4.64594 4 31.5089 4 64.6459C4 97.783 30.8629 124.646 64 124.646Z" fill="#F7EDBD"/>
<path d="M64 114.646C91.6142 114.646 114 92.2602 114 64.6459C114 37.0317 91.6142 14.6459 64 14.6459C36.3858 14.6459 14 37.0317 14 64.6459C14 92.2602 36.3858 114.646 64 114.646Z" fill="#2D2D2D"/>
<path d="M74.4 41.1459C74.1 43.1459 73.6 46.0459 71.2 48.7459C70.5 40.5459 64.5 30.4459 58 27.4459C56 36.6459 45.5 44.5459 43.7 55.4459C41.9 66.3459 49.4 76.6459 60.3 78.3459C71.2 80.1459 81.5 72.6459 83.2 61.7459C84.5 53.8459 80.2 44.4459 74.4 41.1459Z" fill="#FFDE39"/>
<path d="M57.8 75.6459C52.2 72.6459 50.1 65.6459 53.1 59.9459C54.5 56.9459 56.1 52.3459 56.4 49.6459C59.5 49.8459 64.5 52.0459 68.7 55.3459C72.9 58.6459 76.4 65.3459 73.4 71.0459C70.5 76.6459 63.4 78.7459 57.8 75.6459Z" fill="#FEC632"/>
<path d="M23 72.6459C23 72.6459 26 88.6459 43 101.646M105 72.6459C105 72.6459 102 88.6459 85 101.646" stroke="#00A58C" stroke-width="2" stroke-miterlimit="10" stroke-linecap="round" stroke-linejoin="round"/>
<path d="M68.6 70.4459C68.3 73.7459 65 75.9459 61.7 75.4459C58.4 74.9459 55.9 71.7459 56.7 68.5459C57.9 63.6459 64.1 60.6459 64.1 60.6459C64.1 60.6459 69 66.6459 68.6 70.4459Z" fill="#F9A74E"/>
<path d="M38.3 88.646C38.3 88.746 41.1 90.646 41.5 92.846C41.9 95.146 39.4 97.146 39.3 97.146C39.3 97.246 35.7 95.046 35.5 92.546C35.4 90.146 38.4 88.646 38.3 88.646ZM38.6 98.146C38.6 98.146 37.4 101.246 34.7 101.146C31.9 100.946 29.1 97.046 29.1 97.046C29.1 97.046 30.8 94.246 33.4 94.646C35.9 95.046 38.5 98.146 38.6 98.146ZM33.9 82.646C33.9 82.746 36.3 85.146 36.2 87.446C36.1 89.746 33.2 91.246 33.2 91.246C33.2 91.346 30.1 88.546 30.4 85.946C30.7 83.546 33.9 82.746 33.9 82.646ZM32.3 92.146C32.3 92.146 30.5 94.946 27.9 94.246C25.2 93.546 23.2 89.046 23.2 89.046C23.2 89.046 25.5 86.646 27.9 87.546C30.2 88.546 32.2 92.146 32.3 92.146ZM30.7 75.846C30.7 75.946 32.5 78.846 32 81.046C31.5 83.346 28.3 84.246 28.3 84.146C28.3 84.246 25.8 80.746 26.6 78.346C27.4 76.146 30.7 75.946 30.7 75.846ZM22.7 67.546C22.7 67.546 25.6 69.646 26.2 72.246C26.7 74.846 24.9 77.846 24.9 77.846C24.9 77.846 21.5 76.446 20.8 73.346C20.1 70.346 22.7 67.546 22.7 67.546ZM27.2 84.846C27.2 84.846 24.9 87.246 22.5 86.046C20 84.746 18.9 79.946 18.9 79.946C18.9 79.946 21.6 78.046 23.8 79.446C25.9 80.946 27.2 84.846 27.2 84.846ZM98.8 97.046C98.9 97.046 96 100.946 93.2 101.146C90.5 101.346 89.3 98.146 89.3 98.146C89.4 98.146 92 95.046 94.5 94.646C97.1 94.246 98.9 97.046 98.8 97.046ZM88.6 97.146C88.6 97.146 86.1 95.146 86.4 92.846C86.8 90.646 89.6 88.646 89.6 88.646C89.6 88.646 92.5 90.146 92.4 92.646C92.2 95.146 88.6 97.246 88.6 97.146ZM104.8 89.146C104.9 89.146 102.8 93.546 100.1 94.346C97.5 95.046 95.7 92.146 95.7 92.246C95.8 92.246 97.7 88.646 100.1 87.746C102.5 86.746 104.8 89.046 104.8 89.146ZM94.8 91.346C94.8 91.346 91.9 89.846 91.8 87.546C91.7 85.246 94.1 82.846 94.1 82.746C94.1 82.746 97.3 83.646 97.6 86.046C97.9 88.546 94.8 91.346 94.8 91.346ZM109 80.046C109.1 80.046 107.9 84.846 105.4 86.146C103 87.346 100.7 84.946 100.7 84.946C100.8 84.946 102 81.046 104.1 79.546C106.3 78.046 109 79.946 109 80.046ZM105.4 67.546C105.4 67.546 107.9 70.346 107.3 73.446C106.6 76.546 103.2 77.946 103.2 77.946C103.2 77.946 101.4 74.946 101.9 72.346C102.5 69.746 105.4 67.646 105.4 67.546ZM99.6 84.246C99.6 84.246 96.4 83.346 95.9 81.146C95.4 78.946 97.2 75.946 97.2 75.946C97.2 75.946 100.5 76.146 101.3 78.546C102.2 80.946 99.6 84.346 99.6 84.246Z" fill="#00C2A9"/>
<path d="M84 82.6459H44V76.6459C44 74.4459 45.8 72.6459 48 72.6459H80C82.2 72.6459 84 74.4459 84 76.6459V82.6459Z" fill="white"/>
<path opacity="0.2" d="M80 72.6459H75C77.2 72.6459 79 74.4459 79 76.6459V82.6459H84V76.6459C84 74.4459 82.2 72.6459 80 72.6459Z" fill="#382673"/>
<path d="M76.3 94.6459H51.7C50.1 94.6459 48.6 93.6459 48 92.1459L44 82.6459H84L80 92.1459C79.4 93.6459 77.9 94.6459 76.3 94.6459Z" fill="#0CAFE8"/>
<path d="M79 82.6459L75 92.1459C74.4 93.6459 72.9 94.6459 71.3 94.6459H76.3C77.9 94.6459 79.4 93.6459 80 92.1459L84 82.6459H79ZM55.9 124.146C58.6 124.546 61.3 124.746 64 124.746C66.7 124.746 69.4 124.546 72.1 124.146L74 94.6459H54L55.9 124.146Z" fill="#0B90D3"/>
<path d="M70 124.346L72.1 124.046L74 94.6459H71L70 124.346Z" fill="#007BC6"/>
<path d="M54.3 98.6459H73.7L74 94.6459H54L54.3 98.6459Z" fill="#007BC6"/>
<path d="M74 32.6459C75.1046 32.6459 76 31.7505 76 30.6459C76 29.5414 75.1046 28.6459 74 28.6459C72.8954 28.6459 72 29.5414 72 30.6459C72 31.7505 72.8954 32.6459 74 32.6459Z" fill="#F9A74E"/>
<path d="M65 22.6459C66.1046 22.6459 67 21.7505 67 20.6459C67 19.5414 66.1046 18.6459 65 18.6459C63.8954 18.6459 63 19.5414 63 20.6459C63 21.7505 63.8954 22.6459 65 22.6459Z" fill="#FEC632"/>
</svg>
