<svg width="41" height="41" viewBox="0 0 41 41" fill="none" xmlns="http://www.w3.org/2000/svg">
<path fill-rule="evenodd" clip-rule="evenodd" d="M0 20.5C0 31.8218 9.17816 41 20.5 41C31.8218 41 41 31.8218 41 20.5C41 9.17816 31.8218 0 20.5 0C9.17816 0 0 9.17816 0 20.5ZM12.0592 19.2938C11.3932 19.2938 10.8533 19.8337 10.8533 20.4997C10.8533 21.1657 11.3932 21.7056 12.0592 21.7056H26.0303L20.8535 26.8823C20.3826 27.3532 20.3826 28.1167 20.8535 28.5877C21.3245 29.0586 22.088 29.0586 22.5589 28.5877L29.7942 21.3524C30.2651 20.8815 30.2651 20.1179 29.7942 19.647L22.5589 12.4117C22.088 11.9408 21.3245 11.9408 20.8535 12.4117C20.3826 12.8826 20.3826 13.6462 20.8535 14.1171L26.0303 19.2938H12.0592Z" fill="#FF3B65"/>
</svg>
