<svg width="22" height="20" viewBox="0 0 22 20" fill="none" xmlns="http://www.w3.org/2000/svg">
<path d="M14.6282 12.6282C14.6282 13.2867 14.0944 13.8205 13.4359 13.8205C12.7774 13.8205 12.2436 13.2867 12.2436 12.6282C12.2436 11.9697 12.7774 11.4359 13.4359 11.4359C14.0944 11.4359 14.6282 11.9697 14.6282 12.6282Z" fill="white"/>
<path fill-rule="evenodd" clip-rule="evenodd" d="M7.47434 1.5C7.86944 1.5 8.18973 1.82029 8.18973 2.21538V2.69265C8.33259 2.6923 8.48131 2.69231 8.63614 2.69231H12.6716C12.8264 2.69231 12.9751 2.6923 13.1179 2.69265V2.21538C13.1179 1.82029 13.4382 1.5 13.8333 1.5C14.2284 1.5 14.5487 1.82029 14.5487 2.21538V2.73443C15.0477 2.77669 15.4889 2.86503 15.8981 3.07351C16.5561 3.40882 17.0912 3.94386 17.4265 4.60194C17.6381 5.01716 17.7259 5.46532 17.7674 5.97347C17.8077 6.46663 17.8077 7.0753 17.8077 7.82844V11.8639C17.8077 12.617 17.8077 13.2257 17.7674 13.7188C17.7259 14.227 17.6381 14.6752 17.4265 15.0904C17.0912 15.7485 16.5561 16.2835 15.8981 16.6188C15.4828 16.8304 15.0347 16.9182 14.5265 16.9597C14.0334 17 13.4247 17 12.6716 17H8.63613C7.883 17 7.27432 17 6.78117 16.9597C6.27301 16.9182 5.82485 16.8304 5.40963 16.6188C4.75155 16.2835 4.21651 15.7485 3.8812 15.0904C3.66964 14.6752 3.5818 14.227 3.54028 13.7188C3.49999 13.2257 3.49999 12.617 3.5 11.8639V7.82844C3.49999 7.07531 3.49999 6.46663 3.54028 5.97347C3.5818 5.46532 3.66964 5.01716 3.8812 4.60194C4.21651 3.94386 4.75155 3.40882 5.40963 3.07351C5.81879 2.86503 6.25994 2.77669 6.75896 2.73443V2.21538C6.75896 1.82029 7.07925 1.5 7.47434 1.5ZM6.75896 4.1717C6.42346 4.20804 6.21825 4.26728 6.05919 4.34833C5.67032 4.54647 5.35416 4.86263 5.15602 5.2515C5.06436 5.4314 5.00059 5.67031 4.9663 6.08998C4.93751 6.44236 4.93204 6.87747 4.93101 7.46154H16.3767C16.3757 6.87747 16.3702 6.44236 16.3414 6.08998C16.3071 5.67031 16.2433 5.4314 16.1517 5.2515C15.9535 4.86263 15.6374 4.54647 15.2485 4.34833C15.0894 4.26728 14.8842 4.20803 14.5487 4.1717V4.75897C14.5487 5.15407 14.2284 5.47436 13.8333 5.47436C13.4382 5.47436 13.1179 5.15407 13.1179 4.75897V4.12349C12.9693 4.1231 12.8107 4.12308 12.641 4.12308H8.66667C8.497 4.12308 8.33841 4.1231 8.18973 4.12349V4.75897C8.18973 5.15407 7.86944 5.47436 7.47434 5.47436C7.07925 5.47436 6.75896 5.15407 6.75896 4.75897V4.1717ZM16.3769 8.89231H4.93077V11.8333C4.93077 12.6242 4.93133 13.1743 4.9663 13.6023C5.00059 14.022 5.06436 14.2609 5.15602 14.4408C5.35416 14.8297 5.67032 15.1458 6.05919 15.344C6.23909 15.4356 6.478 15.4994 6.89768 15.5337C7.3257 15.5687 7.87581 15.5692 8.66667 15.5692H12.641C13.4319 15.5692 13.982 15.5687 14.41 15.5337C14.8297 15.4994 15.0686 15.4356 15.2485 15.344C15.6374 15.1458 15.9535 14.8297 16.1517 14.4408C16.2433 14.2609 16.3071 14.022 16.3414 13.6023C16.3764 13.1743 16.3769 12.6242 16.3769 11.8333V8.89231Z" fill="white"/>
</svg>
