<svg width="24" height="25" viewBox="0 0 24 25" fill="none" xmlns="http://www.w3.org/2000/svg">
<path fill-rule="evenodd" clip-rule="evenodd" d="M3.49341 5.25673C3.40764 5.23183 3.28285 5.22301 2.65894 5.22301H1.99998C1.50292 5.22301 1.09998 4.82007 1.09998 4.32301C1.09998 3.82596 1.50292 3.42301 1.99998 3.42301H2.65894L2.76035 3.42293C3.22271 3.42238 3.6295 3.4219 3.99535 3.52813C4.72552 3.74015 5.32944 4.25559 5.65355 4.94338C5.72386 5.09259 5.77563 5.25254 5.81757 5.42301H18.1095L18.1357 5.42301C18.5664 5.423 18.9285 5.423 19.224 5.44041C19.5291 5.45838 19.8303 5.49745 20.1226 5.60676C21.1188 5.97933 21.8311 6.8673 21.9787 7.92056C22.022 8.22959 21.9948 8.53213 21.9461 8.83384C21.899 9.12611 21.8205 9.4796 21.727 9.9L21.7213 9.92565L21.0876 12.7775L21.0627 12.8897C20.9224 13.5231 20.8146 14.0095 20.5959 14.4204C20.1579 15.2434 19.4012 15.8504 18.5028 16.0994C18.0543 16.2238 17.5561 16.2235 16.9073 16.2231L16.7924 16.223H9.48717L9.36485 16.2231C8.67889 16.2235 8.15299 16.2239 7.68557 16.0881C6.74875 15.8161 5.97391 15.1548 5.55807 14.2724C5.35059 13.8321 5.26831 13.3126 5.16098 12.6351L5.14182 12.5143L4.18969 6.52948C4.09166 5.91332 4.06335 5.79146 4.02528 5.71068C3.92132 5.49007 3.72761 5.32474 3.49341 5.25673ZM6.12266 7.22301L6.91946 12.2315C7.05548 13.0865 7.10279 13.3278 7.18634 13.5051C7.38203 13.9203 7.74666 14.2315 8.18751 14.3595C8.37573 14.4142 8.62144 14.423 9.48717 14.423H16.7924C17.6099 14.423 17.8411 14.415 18.022 14.3649C18.4447 14.2477 18.8008 13.962 19.007 13.5747C19.0951 13.4091 19.1531 13.1851 19.3305 12.387L19.9642 9.53518C20.0648 9.08241 20.1314 8.78099 20.1691 8.54739C20.2062 8.3173 20.203 8.21959 20.1961 8.17036C20.1401 7.77084 19.8699 7.43403 19.4921 7.29271C19.4455 7.2753 19.3508 7.251 19.1182 7.2373C18.882 7.22338 18.5733 7.22301 18.1095 7.22301H6.12266ZM6.99997 19.573C6.99997 18.6065 7.78347 17.823 8.74997 17.823C9.71647 17.823 10.5 18.6065 10.5 19.573C10.5 20.5395 9.71647 21.323 8.74997 21.323C7.78347 21.323 6.99997 20.5395 6.99997 19.573ZM17.25 17.823C16.2835 17.823 15.5 18.6065 15.5 19.573C15.5 20.5395 16.2835 21.323 17.25 21.323C18.2165 21.323 19 20.5395 19 19.573C19 18.6065 18.2165 17.823 17.25 17.823Z" fill="white"/>
</svg>
