<svg width="28" height="29" viewBox="0 0 28 29" fill="none" xmlns="http://www.w3.org/2000/svg">
<path d="M23.9953 19.5012C23.8312 22.6324 19.351 24.823 14 24.823C8.54801 24.823 4 22.549 4 19.323V9.32297L4.00466 9.14473C4.16875 6.01353 8.64898 3.82297 14 3.82297C19.452 3.82297 24 6.09697 24 9.32297V19.323L23.9953 19.5012ZM22.0011 12.6885C20.1646 14.0188 17.2422 14.823 14 14.823C10.7584 14.823 7.83644 14.0191 5.99992 12.6892L6 14.323C6 16.0675 9.51086 17.823 14 17.823C18.4891 17.823 22 16.0675 22 14.323L22.0011 12.6885ZM14 5.82297C9.51086 5.82297 6 7.5784 6 9.32297C6 11.0675 9.51086 12.823 14 12.823C18.4891 12.823 22 11.0675 22 9.32297C22 7.5784 18.4891 5.82297 14 5.82297ZM22.0011 17.6885C20.1646 19.0188 17.2422 19.823 14 19.823C10.7584 19.823 7.83644 19.0191 5.99992 17.6892L6 19.323L6.00517 19.4393C6.15652 21.1447 9.61062 22.823 14 22.823C18.4891 22.823 22 21.0675 22 19.323L22.0011 17.6885Z" fill="white"/>
</svg>
