<svg width="177" height="59" viewBox="0 0 177 59" fill="none" xmlns="http://www.w3.org/2000/svg">
<g clip-path="url(#clip0_5_1730)">
<path d="M47.8521 25.775C49.1337 25.775 50.0931 26.5502 50.6321 27.7784H53.6142C52.8861 24.9083 50.7439 23.2012 47.8521 23.2012C44.3945 23.2012 41.7869 25.84 41.7869 29.339C41.7869 32.8381 44.3945 35.4767 47.8521 35.4767C50.7439 35.4767 52.8861 33.7698 53.6142 30.8996H50.6321C50.0931 32.1279 49.1337 32.9027 47.8521 32.9027C46.0344 32.9027 44.765 31.3628 44.765 29.339C44.765 27.3151 46.0344 25.775 47.8521 25.775Z" fill="white"/>
<path d="M109.401 23.4661H105.92L101.73 28.6239V23.4661H98.7749V35.2121H101.73V30.1371L106.41 35.2121H110.179L104.607 29.2484L109.401 23.4661Z" fill="white"/>
<path d="M64.1885 29.3412C64.1885 31.3511 62.9798 32.9052 61.1479 32.9052C59.3165 32.9052 58.0375 31.3511 58.0375 29.3412C58.0375 29.3405 58.0375 29.3397 58.0375 29.3391C58.0375 29.3383 58.0375 29.3376 58.0375 29.337C58.0375 27.3271 59.3165 25.7729 61.1479 25.7729C62.9798 25.7729 64.1885 27.3271 64.1885 29.337C64.1885 29.3376 64.1884 29.3383 64.1884 29.3391C64.1884 29.3397 64.1885 29.3405 64.1885 29.3412ZM63.9991 24.8285C63.9991 24.8285 63.8611 24.6613 63.748 24.5229C63.1761 23.8238 62.0803 23.1992 60.4638 23.1992C57.484 23.1992 55.0593 25.9527 55.0593 29.337C55.0593 29.3376 55.0595 29.3383 55.0595 29.3391C55.0595 29.3397 55.0593 29.3405 55.0593 29.3412C55.0593 32.7254 57.484 35.479 60.4638 35.479C62.0803 35.4789 63.1761 34.8543 63.748 34.1551C63.8611 34.0167 63.9991 33.8495 63.9991 33.8495L64.0135 35.2143H66.9538V29.3391V23.4637H64.0135L63.9991 24.8285Z" fill="white"/>
<path d="M76.0524 28.6236L72.1166 23.4657H69.5859V35.2117H72.5406V27.9962L76.0759 32.6031L79.5879 27.9936V35.2117H82.5426V23.4657H80.0119L76.0524 28.6236Z" fill="white"/>
<path d="M90.6679 32.9027C88.879 32.9027 87.5808 31.2749 87.5808 29.339C87.5808 27.4031 88.879 25.775 90.6679 25.775C92.4146 25.775 93.7315 27.4344 93.7315 29.339C93.7315 31.2749 92.4431 32.9027 90.6679 32.9027ZM90.6679 23.2013C87.3232 23.2013 84.6023 25.9548 84.6023 29.339C84.6023 32.7806 87.2666 35.4769 90.6679 35.4769C94.0692 35.4769 96.7335 32.7806 96.7335 29.339C96.7335 25.9548 94.0125 23.2013 90.6679 23.2013Z" fill="white"/>
<path d="M157.987 25.5815C159.455 25.5815 160.542 26.4764 160.928 27.9859H154.883C155.249 26.4978 156.422 25.5815 157.987 25.5815ZM158.056 23.2003C154.49 23.2003 151.999 25.7181 151.999 29.323C151.999 32.8707 154.537 35.4456 158.033 35.4456C160.794 35.4456 163.061 33.899 163.808 31.5053L163.861 31.3359H160.949L160.914 31.4099C160.438 32.4026 159.447 32.9491 158.125 32.9491C156.301 32.9491 154.916 31.749 154.782 30.0758H163.944L163.952 29.9536C164.08 27.976 163.512 26.2057 162.352 24.9692C161.282 23.8285 159.756 23.2003 158.056 23.2003Z" fill="white"/>
<path d="M119.255 29.3411C119.255 31.351 118.046 32.9052 116.214 32.9052C114.383 32.9052 113.104 31.351 113.104 29.3411C113.104 29.3405 113.104 29.3397 113.104 29.339C113.104 29.3382 113.104 29.3376 113.104 29.3369C113.104 27.327 114.383 25.7729 116.214 25.7729C118.046 25.7729 119.255 27.327 119.255 29.3369C119.255 29.3376 119.255 29.3382 119.255 29.339C119.255 29.3397 119.255 29.3405 119.255 29.3411ZM122.02 23.4637H119.08L119.066 24.8284C119.066 24.8284 118.928 24.6612 118.814 24.5229C118.243 23.8238 117.147 23.1991 115.53 23.1991C112.55 23.1991 110.126 25.9526 110.126 29.3369C110.126 29.3376 110.126 29.3382 110.126 29.339C110.126 29.3397 110.126 29.3405 110.126 29.3411C110.126 32.7253 112.55 35.4788 115.53 35.4788C117.147 35.4788 118.243 34.8543 118.814 34.155C118.928 34.0167 119.066 33.8495 119.066 33.8495L119.08 35.2142H122.02V29.339V23.4637Z" fill="white"/>
<path d="M150.924 23.466H141.015V25.9944H144.492V35.212H147.446V25.9944H150.924V23.466Z" fill="white"/>
<path d="M172.304 29.3435L176.736 23.4307H173.365L170.525 27.2154L167.685 23.4307H164.337L168.769 29.3435L164.073 35.2152H167.498L170.548 31.399L173.598 35.2152H177L172.304 29.3435Z" fill="white"/>
<path d="M137.454 31.1791C136.292 31.1791 135.327 32.1676 135.327 33.329C135.327 34.5152 136.292 35.4789 137.454 35.4789C138.641 35.4789 139.605 34.5152 139.605 33.329C139.605 32.1676 138.641 31.1791 137.454 31.1791Z" fill="white"/>
<path d="M124.03 25.9944H127.507V35.212H130.461V25.9944H133.938V23.466H124.03V25.9944Z" fill="white"/>
<path d="M23.4831 27.7631H0V30.8745H23.4831V27.7631Z" fill="white"/>
<path d="M27.7797 23.4686H30.893V1.57597e-05H27.7797V23.4686Z" fill="white"/>
<path d="M27.7797 58.6459H30.893V35.1773H27.7797V58.6459Z" fill="white"/>
</g>
<defs>
<clipPath id="clip0_5_1730">
<rect width="177" height="58.6459" fill="white"/>
</clipPath>
</defs>
</svg>
