<svg width="21" height="20" viewBox="0 0 21 20" fill="none" xmlns="http://www.w3.org/2000/svg">
<path fill-rule="evenodd" clip-rule="evenodd" d="M10.6967 10.9022C12.2409 10.9022 13.4927 9.65042 13.4927 8.10626C13.4927 6.5621 12.2409 5.31031 10.6967 5.31031C9.15258 5.31031 7.90079 6.5621 7.90079 8.10626C7.90079 9.65042 9.15258 10.9022 10.6967 10.9022ZM10.6967 9.46429C11.4468 9.46429 12.0548 8.85627 12.0548 8.10625C12.0548 7.35623 11.4468 6.74822 10.6967 6.74822C9.94673 6.74822 9.33871 7.35623 9.33871 8.10625C9.33871 8.85627 9.94673 9.46429 10.6967 9.46429Z" fill="white"/>
<path fill-rule="evenodd" clip-rule="evenodd" d="M4.5 8.32184C4.5 4.89512 7.27312 2.11493 10.6967 2.11493C14.1204 2.11493 16.8935 4.89512 16.8935 8.32184C16.8935 10.8247 15.3165 13.796 12.4481 17.1874C12.3658 17.2848 12.2754 17.3752 12.178 17.4575C11.2108 18.2756 9.76344 18.1547 8.94535 17.1874L8.49234 16.6518L8.49694 16.6477C5.91305 13.48 4.5 10.6911 4.5 8.32184ZM10.0457 16.2618C10.3514 16.62 10.8895 16.6641 11.2495 16.3596C11.2858 16.3289 11.3195 16.2952 11.3503 16.2589C14.1823 12.9104 15.4556 10.2808 15.4556 8.32184C15.4556 5.68674 13.3237 3.55285 10.6967 3.55285C8.06978 3.55285 5.93792 5.68674 5.93792 8.32184C5.93792 10.2808 7.21118 12.9104 10.0432 16.2589L10.0457 16.2618Z" fill="white"/>
</svg>
