<svg width="21" height="20" viewBox="0 0 21 20" fill="none" xmlns="http://www.w3.org/2000/svg">
<path fill-rule="evenodd" clip-rule="evenodd" d="M14.3017 2.22493C13.9341 2.099 13.5301 2.09945 13.0493 2.09998H7.75074C7.2699 2.09945 6.86594 2.099 6.4983 2.22493C5.78608 2.4689 5.19323 3.11073 5.00644 3.84004C4.94964 4.06182 4.93678 4.28259 4.94302 4.51614C4.5745 4.46295 4.19516 4.50673 3.84919 4.64511C3.05791 4.96162 2.5 5.73849 2.5 6.80814C2.5 8.69069 4.17067 10.4198 6.25798 10.6835C6.7475 11.7535 7.45115 12.782 8.48217 13.3899C8.46813 13.8913 8.41925 14.452 8.06954 14.8425C7.91145 15.019 7.73519 15.1761 7.60043 15.373C7.3992 15.667 7.28789 16.0132 7.28789 16.4637L7.2879 17.1819C7.2879 17.5786 7.60944 17.9001 8.00608 17.9001H12.794C13.1906 17.9001 13.5121 17.5786 13.5121 17.1819L13.5121 16.4637C13.5121 16.0132 13.4008 15.667 13.1996 15.373C13.0648 15.176 12.8886 15.0191 12.7305 14.8425C12.3808 14.452 12.3319 13.8913 12.3179 13.3899C13.3489 12.782 14.0525 11.7535 14.5421 10.6835C16.6294 10.4198 18.3 8.69068 18.3 6.80814C18.3 5.73849 17.7421 4.96162 16.9508 4.64511C16.6049 4.50673 16.2255 4.46295 15.857 4.51614C15.8633 4.28259 15.8504 4.06182 15.7936 3.84004C15.6068 3.11073 15.014 2.4689 14.3017 2.22493ZM7.84648 3.53642C7.21781 3.53642 7.07484 3.54574 6.96377 3.58379C6.70938 3.67093 6.46461 3.93592 6.39789 4.19641C6.36825 4.31214 6.36919 4.43325 6.41378 4.99436C6.59471 7.2715 7.06531 9.19599 7.78297 10.5267C8.49703 11.8508 9.38126 12.4738 10.4 12.4738C11.4188 12.4738 12.303 11.8508 13.0171 10.5267C13.7347 9.19599 14.2053 7.2715 14.3863 4.99436C14.4308 4.43325 14.4318 4.31214 14.4021 4.19641C14.3354 3.93592 14.0907 3.67093 13.8363 3.58379C13.7252 3.54574 13.5822 3.53642 12.9536 3.53642H7.84648ZM4.38264 5.97875C4.17644 6.06123 3.93637 6.28182 3.93637 6.80814C3.93637 7.6678 4.62209 8.62935 5.66247 9.05647C5.41939 8.21858 5.23627 7.30276 5.10988 6.33461C5.09988 6.25801 5.09488 6.21971 5.06608 6.16088C4.94398 5.91146 4.61573 5.88552 4.38264 5.97875ZM16.4174 5.97875C16.6236 6.06123 16.8637 6.28182 16.8637 6.80814C16.8637 7.6678 16.1779 8.62935 15.1376 9.05647C15.3806 8.21858 15.5638 7.30276 15.6902 6.33461C15.7002 6.25801 15.7052 6.21971 15.734 6.16088C15.8561 5.91148 16.1832 5.88508 16.4174 5.97875ZM9.13957 15.8007C9.02503 15.9286 8.883 16.0421 8.78577 16.1842C8.76257 16.2181 8.72426 16.2759 8.72426 16.4637L12.0758 16.4637C12.0758 16.2759 12.0375 16.2181 12.0143 16.1842C11.917 16.0421 11.775 15.9286 11.6605 15.8007C11.18 15.2642 10.9746 14.5826 10.9085 13.8774C10.5787 13.9207 10.2213 13.9207 9.8915 13.8774C9.82546 14.5826 9.62 15.2642 9.13957 15.8007Z" fill="white"/>
</svg>
