<svg width="24" height="24" viewBox="0 0 24 24" fill="none" xmlns="http://www.w3.org/2000/svg">
<path fill-rule="evenodd" clip-rule="evenodd" d="M4.63636 10.4659C4.63636 7.24634 7.24634 4.63636 10.4659 4.63636C13.6855 4.63636 16.2955 7.24634 16.2955 10.4659C16.2955 13.6855 13.6855 16.2955 10.4659 16.2955C7.24634 16.2955 4.63636 13.6855 4.63636 10.4659ZM10.4659 3C6.3426 3 3 6.3426 3 10.4659C3 14.5892 6.3426 17.9318 10.4659 17.9318C12.2328 17.9318 13.8563 17.318 15.1349 16.2921L19.6032 20.7604C19.9228 21.0799 20.4408 21.0799 20.7603 20.7604C21.0798 20.4408 21.0798 19.9228 20.7603 19.6033L16.292 15.135C17.318 13.8564 17.9318 12.2328 17.9318 10.4659C17.9318 6.3426 14.5892 3 10.4659 3Z" fill="#6B6B6B"/>
</svg>
